<svg width="24" height="24" viewBox="0 0 24 24" fill="none" xmlns="http://www.w3.org/2000/svg">
<path fill-rule="evenodd" clip-rule="evenodd" d="M6 5.75C5.66848 5.75 5.35054 5.8817 5.11612 6.11612C4.8817 6.35054 4.75 6.66848 4.75 7V19C4.75 19.3315 4.8817 19.6495 5.11612 19.8839C5.35054 20.1183 5.66848 20.25 6 20.25H11.5C11.9142 20.25 12.25 20.5858 12.25 21C12.25 21.4142 11.9142 21.75 11.5 21.75H6C5.27065 21.75 4.57118 21.4603 4.05546 20.9445C3.53973 20.4288 3.25 19.7293 3.25 19V7C3.25 6.27065 3.53973 5.57118 4.05546 5.05546C4.57118 4.53973 5.27065 4.25 6 4.25H18C18.7293 4.25 19.4288 4.53973 19.9445 5.05546C20.4603 5.57118 20.75 6.27065 20.75 7V13C20.75 13.4142 20.4142 13.75 20 13.75C19.5858 13.75 19.25 13.4142 19.25 13V7C19.25 6.66848 19.1183 6.35054 18.8839 6.11612C18.6495 5.8817 18.3315 5.75 18 5.75H6Z" fill="#14367B"/>
<path fill-rule="evenodd" clip-rule="evenodd" d="M16 2.25C16.4142 2.25 16.75 2.58579 16.75 3V7C16.75 7.41421 16.4142 7.75 16 7.75C15.5858 7.75 15.25 7.41421 15.25 7V3C15.25 2.58579 15.5858 2.25 16 2.25Z" fill="#14367B"/>
<path fill-rule="evenodd" clip-rule="evenodd" d="M8 2.25C8.41421 2.25 8.75 2.58579 8.75 3V7C8.75 7.41421 8.41421 7.75 8 7.75C7.58579 7.75 7.25 7.41421 7.25 7V3C7.25 2.58579 7.58579 2.25 8 2.25Z" fill="#14367B"/>
<path fill-rule="evenodd" clip-rule="evenodd" d="M3.25 11C3.25 10.5858 3.58579 10.25 4 10.25H20C20.4142 10.25 20.75 10.5858 20.75 11C20.75 11.4142 20.4142 11.75 20 11.75H4C3.58579 11.75 3.25 11.4142 3.25 11Z" fill="#14367B"/>
<path fill-rule="evenodd" clip-rule="evenodd" d="M21.5303 16.4697C21.8232 16.7626 21.8232 17.2374 21.5303 17.5303L17.5303 21.5303C17.2374 21.8232 16.7626 21.8232 16.4697 21.5303L14.4697 19.5303C14.1768 19.2374 14.1768 18.7626 14.4697 18.4697C14.7626 18.1768 15.2374 18.1768 15.5303 18.4697L17 19.9393L20.4697 16.4697C20.7626 16.1768 21.2374 16.1768 21.5303 16.4697Z" fill="#14367B"/>
</svg>
