<svg width="24" height="24" viewBox="0 0 24 24" fill="none" xmlns="http://www.w3.org/2000/svg">
<path fill-rule="evenodd" clip-rule="evenodd" d="M3.25 4C3.25 3.58579 3.58579 3.25 4 3.25H10C10.4142 3.25 10.75 3.58579 10.75 4V12C10.75 12.4142 10.4142 12.75 10 12.75H4C3.58579 12.75 3.25 12.4142 3.25 12V4ZM4.75 4.75V11.25H9.25V4.75H4.75Z" fill="#14367B"/>
<path fill-rule="evenodd" clip-rule="evenodd" d="M3.25 16C3.25 15.5858 3.58579 15.25 4 15.25H10C10.4142 15.25 10.75 15.5858 10.75 16V20C10.75 20.4142 10.4142 20.75 10 20.75H4C3.58579 20.75 3.25 20.4142 3.25 20V16ZM4.75 16.75V19.25H9.25V16.75H4.75Z" fill="#14367B"/>
<path fill-rule="evenodd" clip-rule="evenodd" d="M13.25 12C13.25 11.5858 13.5858 11.25 14 11.25H20C20.4142 11.25 20.75 11.5858 20.75 12V20C20.75 20.4142 20.4142 20.75 20 20.75H14C13.5858 20.75 13.25 20.4142 13.25 20V12ZM14.75 12.75V19.25H19.25V12.75H14.75Z" fill="#14367B"/>
<path fill-rule="evenodd" clip-rule="evenodd" d="M13.25 4C13.25 3.58579 13.5858 3.25 14 3.25H20C20.4142 3.25 20.75 3.58579 20.75 4V8C20.75 8.41421 20.4142 8.75 20 8.75H14C13.5858 8.75 13.25 8.41421 13.25 8V4ZM14.75 4.75V7.25H19.25V4.75H14.75Z" fill="#14367B"/>
</svg>
